<svg width="58" height="59" fill="none" xmlns="http://www.w3.org/2000/svg"><g filter="url(#filter0_d_18_71)"><path d="M36.623 6.089c-1.836.226-3.954.86-5.494 1.649l-.484.25.43.094c1.156.273 3.493.328 5.485.14.524-.047.532-.047.805.227.235.234.274.328.274.64 0 .423-.195.759-.524.884-.656.266-2.93.398-4.36.258-1.892-.18-2.806-.383-8.91-1.954-5.204-1.352-7.869-1.258-10.33.344-1.392.914-2.665 2.485-3.666 4.532-.71 1.462-.844 2.071-.844 3.79 0 1.665.211 2.908.86 5.19.656 2.258 1.164 3.634 3.806 10.167a126.77 126.77 0 012.36 6.361c.586 1.735 1.211 3.517 1.383 3.947 1.118 2.813 2.165 3.75 3.704 3.29.923-.274 1.579-.954 2.259-2.345.578-1.172.875-2.11 1.72-5.439.874-3.415 1.312-4.782 1.89-5.955.743-1.485 1.759-2.32 2.806-2.32.5 0 .805.155 1.227.624.75.829 1.313 2.353 2.422 6.526.868 3.243 1.141 4.15 1.657 5.423 1.094 2.712 2.415 3.916 3.86 3.525.587-.156 1.228-.875 1.751-1.954.586-1.196.915-2.188 1.985-5.94 1.141-4.024 1.462-5 3.11-9.533 1.962-5.393 2.525-7.221 2.939-9.542.234-1.297.258-3.587.047-4.642-.328-1.665-.961-3.126-1.891-4.353-1.454-1.93-3.72-3.251-6.448-3.775-.789-.156-2.993-.219-3.829-.11z" fill="#fff"/></g><defs><filter id="filter0_d_18_71" x=".33" y=".829" width="57.281" height="57.326" filterUnits="userSpaceOnUse" color-interpolation-filters="sRGB"><feFlood flood-opacity="0" result="BackgroundImageFix"/><feColorMatrix in="SourceAlpha" values="0 0 0 0 0 0 0 0 0 0 0 0 0 0 0 0 0 0 127 0" result="hardAlpha"/><feOffset dy="3.47"/><feGaussianBlur stdDeviation="4.338"/><feComposite in2="hardAlpha" operator="out"/><feColorMatrix values="0 0 0 0 0 0 0 0 0 0.0738584 0 0 0 0 0.461615 0 0 0 1 0"/><feBlend in2="BackgroundImageFix" result="effect1_dropShadow_18_71"/><feBlend in="SourceGraphic" in2="effect1_dropShadow_18_71" result="shape"/></filter></defs></svg>