<svg width="47" height="60" fill="none" xmlns="http://www.w3.org/2000/svg"><path d="M8.931.224C2.577 1.606-.263 7.347.781 16.714c.467 4.257 1.692 8.816 3.92 14.591.604 1.563 1.036 3.126 1.373 4.922a283.67 283.67 0 011.053 6.13c.224 1.398.812 4.472 1.114 5.827 1.398 6.147 3.16 9.653 5.482 10.87.7.371.967.414.423.069-1.649-1.053-2.858-3.566-3.574-7.425-.466-2.486-.7-4.343-1.252-9.903-.613-6.164-1.062-8.763-1.9-11.094-2.054-5.698-3.246-10.196-3.816-14.444-.259-1.89-.276-5.672-.043-7.028.527-3.056 1.796-5.163 3.816-6.328 1.252-.717 2.703-1.123 4.032-1.123 1.606 0 2.685.294 6.027 1.615 3.073 1.226 4.48 1.606 6.173 1.7l.863.052-.432-.138c-.233-.069-.803-.224-1.252-.354-1.174-.32-2.581-.94-5.093-2.27C14.155.518 13.067.147 10.96.086 9.95.06 9.562.086 8.931.224z" fill="#000"/><path d="M34.185.181c-1.114.207-2.115.544-4.308 1.416-2.789 1.122-4.446 1.649-6.052 1.934-.121.017.233.043.777.052 1.001.008 2.555-.19 3.54-.467.259-.069.863-.224 1.338-.354a43.2 43.2 0 001.683-.466c1.434-.423 2.478-.561 4.101-.552 1.295 0 1.563.034 2.306.233 2.78.742 4.55 2.34 5.508 4.973.578 1.58.734 2.745.725 5.404 0 3.03-.224 4.818-1.027 8.47-.674 3.03-1.209 4.809-3.014 10.093-.88 2.59-1.14 4.308-1.778 11.871-.449 5.387-.88 8.072-1.606 10.119-.535 1.493-1.355 2.676-2.28 3.272-.491.32-.5.397-.025.25.794-.25 1.908-1.252 2.616-2.331 1.528-2.357 2.504-5.759 3.574-12.519 1.123-7.045 1.356-8.055 2.418-10.68 1.761-4.35 3.194-9.704 3.73-13.908.18-1.45.258-5.042.12-6.251-.63-5.88-3.194-9.264-7.9-10.438C37.709.069 35.145 0 34.186.18z" fill="#000"/><path d="M23.54 34.759a8.473 8.473 0 00-2.305.785c-2.176 1.132-3.41 3.074-3.99 6.26-.172 1.001-.198 1.364-.189 3.617 0 1.606.06 3.195.155 4.447.268 3.332.182 5.525-.25 6.181-.07.113-.112.208-.086.208.017 0 .172-.208.345-.458.69-1.045 1.053-2.858 1.209-6.104.285-5.983.63-8.228 1.562-10.015 1.002-1.917 2.79-2.927 5.025-2.832.708.026.924.07 1.399.294 2.469 1.165 3.902 5.024 4.325 11.646.104 1.615.06 6.156-.06 6.907-.104.64.112.199.337-.69 1.061-4.17 1.303-9.083.613-12.813-.536-2.944-1.857-5.37-3.523-6.5-1.243-.847-2.961-1.2-4.567-.933z" fill="#000"/></svg>